<svg id="visual" viewBox="0 0 2350 1176" width="2350" height="1176" xmlns="http://www.w3.org/2000/svg" xmlns:xlink="http://www.w3.org/1999/xlink" version="1.1"><rect width="2350" height="1176" fill="#1938B5"></rect><g><g transform="translate(1323 834)"><path d="M235.6 -87.1C261.3 2.5 207.7 107.3 124.7 166.4C41.7 225.5 -70.8 238.9 -142 188.7C-213.2 138.6 -243.1 25 -212.5 -71.3C-182 -167.6 -91 -246.6 7 -248.8C105 -251.1 209.9 -176.7 235.6 -87.1Z" fill="none" stroke="#475FC3" stroke-width="20"></path></g><g transform="translate(1998 69)"><path d="M172.3 -59.1C198.6 25.2 178.4 121.4 113.3 172.7C48.2 223.9 -61.7 230 -128.2 180.7C-194.7 131.4 -217.7 26.6 -189.1 -60.8C-160.5 -148.2 -80.2 -218.1 -3.6 -216.9C73 -215.7 145.9 -143.4 172.3 -59.1Z" fill="none" stroke="#475FC3" stroke-width="20"></path></g><g transform="translate(2291 777)"><path d="M181 -56.6C204.3 13.1 172.2 103 108.8 148.9C45.4 194.8 -49.4 196.7 -117.8 149.9C-186.2 103.1 -228.2 7.6 -204.2 -63C-180.1 -133.6 -90.1 -179.5 -5.6 -177.6C78.8 -175.8 157.6 -126.3 181 -56.6Z" fill="none" stroke="#475FC3" stroke-width="20"></path></g></g></svg>