<svg id="visual" viewBox="0 0 2350 1076" width="2350" height="1076" xmlns="http://www.w3.org/2000/svg" xmlns:xlink="http://www.w3.org/1999/xlink" version="1.1"><rect x="0" y="0" width="2350" height="1076" fill="#1938B5"></rect><defs><linearGradient id="grad1_0" x1="54.2%" y1="100%" x2="100%" y2="0%"><stop offset="6.319702602230483%" stop-color="#1938b5" stop-opacity="1"></stop><stop offset="93.68029739776951%" stop-color="#1938b5" stop-opacity="1"></stop></linearGradient></defs><defs><linearGradient id="grad2_0" x1="0%" y1="100%" x2="45.8%" y2="0%"><stop offset="6.319702602230483%" stop-color="#1938b5" stop-opacity="1"></stop><stop offset="93.68029739776951%" stop-color="#1938b5" stop-opacity="1"></stop></linearGradient></defs><g transform="translate(2350, 1076)"><path d="M-215.2 0C-208.3 -37 -201.3 -73.9 -183.6 -106C-165.9 -138.1 -137.4 -165.3 -105 -181.9C-72.6 -198.4 -36.3 -204.2 0 -210L0 0Z" fill="#FFF"></path></g><g transform="translate(0, 0)"><path d="M215.2 0C204.4 34.6 193.7 69.3 176.7 102C159.7 134.7 136.5 165.6 106 183.6C75.5 201.6 37.8 206.8 0 212L0 0Z" fill="#FFF"></path></g></svg>