<svg id="visual" viewBox="0 0 2350 1076" width="2350" height="1076" xmlns="http://www.w3.org/2000/svg" xmlns:xlink="http://www.w3.org/1999/xlink" version="1.1"><rect x="0" y="0" width="2350" height="1076" fill="#1938B5"></rect><path d="M0 815L56 817C112 819 224 823 335.8 827.7C447.7 832.3 559.3 837.7 671.2 844.2C783 850.7 895 858.3 1007 837.3C1119 816.3 1231 766.7 1343 754.2C1455 741.7 1567 766.3 1678.8 797.8C1790.7 829.3 1902.3 867.7 2014.2 871.2C2126 874.7 2238 843.3 2294 827.7L2350 812L2350 1077L2294 1077C2238 1077 2126 1077 2014.2 1077C1902.3 1077 1790.7 1077 1678.8 1077C1567 1077 1455 1077 1343 1077C1231 1077 1119 1077 1007 1077C895 1077 783 1077 671.2 1077C559.3 1077 447.7 1077 335.8 1077C224 1077 112 1077 56 1077L0 1077Z" fill="#FFF" stroke-linecap="round" stroke-linejoin="miter"></path></svg>